<svg width="216" height="216" viewBox="0 0 216 216" fill="none" xmlns="http://www.w3.org/2000/svg">
<g clip-path="url(#clip0_2014_17)">
<path d="M175.5 0H40.5C18.1325 0 0 18.1325 0 40.5V175.5C0 197.868 18.1325 216 40.5 216H175.5C197.868 216 216 197.868 216 175.5V40.5C216 18.1325 197.868 0 175.5 0Z" fill="#0A0A0F"/>
<path d="M77.232 40L125.936 89.28C125.381 86.72 125.04 84.3947 124.912 82.304C124.784 80.2133 124.784 78.1867 124.912 76.224L126.512 50.048L136.816 50.624L134 104.064L81.712 106.88L81.2 96.896L105.392 95.616C108.037 95.488 110.256 95.4667 112.048 95.552C113.84 95.6373 116.101 95.936 118.832 96.448L70 47.232L77.232 40Z" fill="#34D399"/>
<path d="M138.584 175.336L89.88 126.056C90.4347 128.616 90.776 130.941 90.904 133.032C91.032 135.123 91.032 137.128 90.904 139.048L89.304 165.288L79 164.712L81.816 111.272L134.104 108.456L134.616 118.44L110.424 119.72C107.779 119.848 105.56 119.869 103.768 119.784C101.976 119.699 99.7147 119.4 96.984 118.888L145.816 168.104L138.584 175.336Z" fill="#7CF29C"/>
</g>
<defs>
<clipPath id="clip0_2014_17">
<rect width="216" height="216" fill="white"/>
</clipPath>
</defs>
</svg>
