<svg width="365" height="136" viewBox="0 0 365 136" fill="none" xmlns="http://www.w3.org/2000/svg">
<path d="M152.232 0L200.936 49.28C200.381 46.72 200.04 44.3947 199.912 42.304C199.784 40.2133 199.784 38.1867 199.912 36.224L201.512 10.048L211.816 10.624L209 64.064L156.712 66.88L156.2 56.896L180.392 55.616C183.037 55.488 185.256 55.4667 187.048 55.552C188.84 55.6373 191.101 55.936 193.832 56.448L145 7.23199L152.232 0Z" fill="#34D399"/>
<path d="M213.584 135.336L164.88 86.0561C165.435 88.6161 165.776 90.9414 165.904 93.0321C166.032 95.1227 166.032 97.1281 165.904 99.0481L164.304 125.288L154 124.712L156.816 71.2721L209.104 68.4561L209.616 78.4401L185.424 79.7201C182.779 79.8481 180.56 79.8694 178.768 79.7841C176.976 79.6987 174.715 79.4001 171.984 78.8881L220.816 128.104L213.584 135.336Z" fill="#7CF29C"/>
<path d="M364.664 114.552C362.36 116.088 359.565 117.283 356.28 118.136C352.995 118.989 349.773 119.416 346.616 119.416C339.363 119.416 333.773 117.517 329.848 113.72C325.923 109.923 323.96 105.037 323.96 99.0639V58.8719H308.472V50.5519H323.96V35.256L334.712 33.976V50.5519H358.008L356.728 58.8719H334.712V98.936C334.712 102.691 335.693 105.549 337.656 107.512C339.661 109.475 342.968 110.456 347.576 110.456C350.093 110.456 352.419 110.157 354.552 109.56C356.685 108.963 358.669 108.195 360.504 107.256L364.664 114.552Z" fill="black"/>
<path d="M274.218 22.072C277.845 22.072 281.13 22.392 284.074 23.032C287.018 23.672 289.813 24.568 292.458 25.72L289.002 33.72C286.826 32.7814 284.522 32.0774 282.09 31.608C279.658 31.1387 277.141 30.904 274.538 30.904C269.845 30.904 266.303 31.8214 263.914 33.656C261.567 35.4907 260.394 38.3067 260.394 42.104V55.8H283.242L282.09 64.248H260.394V117.944H249.642V64.248H233.578V55.8H249.642V42.36C249.642 38.1787 250.709 34.5734 252.842 31.544C255.018 28.5147 257.962 26.1893 261.674 24.568C265.386 22.904 269.567 22.072 274.218 22.072Z" fill="black"/>
<path d="M81.55 117.944V109.688H92.0461V58.808H81.55V50.552H100.238L102.222 66.488C104.825 60.9413 107.982 56.6533 111.694 53.624C115.406 50.5946 120.313 49.08 126.414 49.08C128.291 49.08 129.955 49.2293 131.406 49.528C132.899 49.784 134.414 50.1253 135.95 50.552L132.814 60.152C131.406 59.768 130.126 59.4906 128.974 59.32C127.822 59.1066 126.499 59 125.006 59C119.843 59 115.406 60.8346 111.694 64.504C107.982 68.1733 105.017 73.72 102.798 81.144V109.688H116.494V117.944H81.55ZM125.582 73.336V58.68L126.67 50.552H135.95L134.414 73.336H125.582Z" fill="black"/>
<path d="M44.48 22.072L55.232 23.416V117.944H45.824L44.8 109.048C42.2827 112.632 39.3813 115.256 36.096 116.92C32.8533 118.584 29.376 119.416 25.664 119.416C19.8187 119.416 14.9973 117.944 11.2 115C7.40267 112.056 4.58667 107.96 2.752 102.712C0.917333 97.4214 0 91.2987 0 84.344C0 77.6027 1.04533 71.5867 3.136 66.296C5.22667 60.9627 8.23467 56.7814 12.16 53.752C16.128 50.68 20.8853 49.144 26.432 49.144C30.3147 49.144 33.728 49.8267 36.672 51.192C39.616 52.5147 42.2187 54.4774 44.48 57.08V22.072ZM29.248 57.784C23.616 57.784 19.2853 59.9814 16.256 64.376C13.2267 68.7707 11.712 75.4267 11.712 84.344C11.712 90.1467 12.3307 95.0107 13.568 98.936C14.8053 102.861 16.6187 105.805 19.008 107.768C21.44 109.731 24.4053 110.712 27.904 110.712C31.744 110.712 35.008 109.624 37.696 107.448C40.4267 105.272 42.688 102.819 44.48 100.088V66.424C42.6453 63.6934 40.4267 61.5814 37.824 60.088C35.2213 58.552 32.3627 57.784 29.248 57.784Z" fill="black"/>
</svg>
